<mxfile host="app.diagrams.net" modified="2022-11-29T20:00:38.367Z" agent="5.0 (Windows NT 10.0; Win64; x64) AppleWebKit/537.36 (KHTML, like Gecko) Chrome/107.0.0.0 Safari/537.36 Edg/107.0.1418.56" etag="vRu2RVUADJQR9lV2Yp7w" version="20.5.3" type="github">
  <diagram id="kgpKYQtTHZ0yAKxKKP6v" name="Page-1">
    <mxGraphModel dx="895" dy="582" grid="1" gridSize="10" guides="1" tooltips="1" connect="1" arrows="1" fold="1" page="1" pageScale="1" pageWidth="850" pageHeight="1100" math="0" shadow="0">
      <root>
        <mxCell id="0" />
        <mxCell id="1" parent="0" />
        <mxCell id="UVm6rG7PrMdfkEH4zLCa-1" value="Capturista" style="shape=umlActor;verticalLabelPosition=bottom;verticalAlign=top;html=1;outlineConnect=0;" vertex="1" parent="1">
          <mxGeometry x="130" y="240" width="30" height="60" as="geometry" />
        </mxCell>
        <mxCell id="UVm6rG7PrMdfkEH4zLCa-2" value="" style="endArrow=none;html=1;rounded=0;entryX=0.5;entryY=1;entryDx=0;entryDy=0;" edge="1" parent="1" target="UVm6rG7PrMdfkEH4zLCa-3">
          <mxGeometry width="50" height="50" relative="1" as="geometry">
            <mxPoint x="170" y="270" as="sourcePoint" />
            <mxPoint x="220" y="220" as="targetPoint" />
          </mxGeometry>
        </mxCell>
        <mxCell id="UVm6rG7PrMdfkEH4zLCa-3" value="Login" style="ellipse;whiteSpace=wrap;html=1;" vertex="1" parent="1">
          <mxGeometry x="140" y="160" width="100" height="50" as="geometry" />
        </mxCell>
        <mxCell id="UVm6rG7PrMdfkEH4zLCa-4" value="" style="endArrow=none;html=1;rounded=0;entryX=0;entryY=0.5;entryDx=0;entryDy=0;" edge="1" parent="1" target="UVm6rG7PrMdfkEH4zLCa-5">
          <mxGeometry width="50" height="50" relative="1" as="geometry">
            <mxPoint x="170" y="275" as="sourcePoint" />
            <mxPoint x="230" y="280" as="targetPoint" />
          </mxGeometry>
        </mxCell>
        <mxCell id="UVm6rG7PrMdfkEH4zLCa-5" value="Inventario" style="ellipse;whiteSpace=wrap;html=1;" vertex="1" parent="1">
          <mxGeometry x="230" y="250" width="100" height="50" as="geometry" />
        </mxCell>
        <mxCell id="UVm6rG7PrMdfkEH4zLCa-9" value="" style="endArrow=classic;html=1;rounded=0;exitX=1;exitY=0.5;exitDx=0;exitDy=0;" edge="1" parent="1" source="UVm6rG7PrMdfkEH4zLCa-5">
          <mxGeometry relative="1" as="geometry">
            <mxPoint x="320" y="230" as="sourcePoint" />
            <mxPoint x="420" y="275" as="targetPoint" />
          </mxGeometry>
        </mxCell>
        <mxCell id="UVm6rG7PrMdfkEH4zLCa-10" value="Include" style="edgeLabel;resizable=0;html=1;align=center;verticalAlign=middle;" connectable="0" vertex="1" parent="UVm6rG7PrMdfkEH4zLCa-9">
          <mxGeometry relative="1" as="geometry" />
        </mxCell>
        <mxCell id="UVm6rG7PrMdfkEH4zLCa-12" value="Capturar Mobiliario" style="ellipse;whiteSpace=wrap;html=1;" vertex="1" parent="1">
          <mxGeometry x="420" y="250" width="100" height="50" as="geometry" />
        </mxCell>
        <mxCell id="UVm6rG7PrMdfkEH4zLCa-14" value="Capturar Equipo y Herramienta" style="ellipse;whiteSpace=wrap;html=1;" vertex="1" parent="1">
          <mxGeometry x="420" y="190" width="100" height="50" as="geometry" />
        </mxCell>
        <mxCell id="UVm6rG7PrMdfkEH4zLCa-15" value="Capturar Refacciones" style="ellipse;whiteSpace=wrap;html=1;" vertex="1" parent="1">
          <mxGeometry x="420" y="310" width="100" height="50" as="geometry" />
        </mxCell>
        <mxCell id="UVm6rG7PrMdfkEH4zLCa-17" value="(el Almacenista tiene otras tareas)" style="text;html=1;strokeColor=none;fillColor=none;align=center;verticalAlign=middle;whiteSpace=wrap;rounded=0;" vertex="1" parent="1">
          <mxGeometry x="90" y="320" width="115" height="60" as="geometry" />
        </mxCell>
        <mxCell id="UVm6rG7PrMdfkEH4zLCa-23" value="" style="endArrow=classic;html=1;rounded=0;entryX=0;entryY=0.5;entryDx=0;entryDy=0;exitX=0.98;exitY=0.22;exitDx=0;exitDy=0;exitPerimeter=0;" edge="1" parent="1" source="UVm6rG7PrMdfkEH4zLCa-5" target="UVm6rG7PrMdfkEH4zLCa-14">
          <mxGeometry relative="1" as="geometry">
            <mxPoint x="340" y="260" as="sourcePoint" />
            <mxPoint x="410" y="260" as="targetPoint" />
          </mxGeometry>
        </mxCell>
        <mxCell id="UVm6rG7PrMdfkEH4zLCa-24" value="Include" style="edgeLabel;resizable=0;html=1;align=center;verticalAlign=middle;" connectable="0" vertex="1" parent="UVm6rG7PrMdfkEH4zLCa-23">
          <mxGeometry relative="1" as="geometry">
            <mxPoint x="10" as="offset" />
          </mxGeometry>
        </mxCell>
        <mxCell id="UVm6rG7PrMdfkEH4zLCa-25" value="" style="endArrow=classic;html=1;rounded=0;entryX=0;entryY=0.5;entryDx=0;entryDy=0;exitX=0.96;exitY=0.86;exitDx=0;exitDy=0;exitPerimeter=0;" edge="1" parent="1" source="UVm6rG7PrMdfkEH4zLCa-5" target="UVm6rG7PrMdfkEH4zLCa-15">
          <mxGeometry relative="1" as="geometry">
            <mxPoint x="330" y="310" as="sourcePoint" />
            <mxPoint x="412" y="290" as="targetPoint" />
          </mxGeometry>
        </mxCell>
        <mxCell id="UVm6rG7PrMdfkEH4zLCa-26" value="Include" style="edgeLabel;resizable=0;html=1;align=center;verticalAlign=middle;" connectable="0" vertex="1" parent="UVm6rG7PrMdfkEH4zLCa-25">
          <mxGeometry relative="1" as="geometry">
            <mxPoint x="10" as="offset" />
          </mxGeometry>
        </mxCell>
        <mxCell id="UVm6rG7PrMdfkEH4zLCa-27" value="Salir" style="ellipse;whiteSpace=wrap;html=1;" vertex="1" parent="1">
          <mxGeometry x="140" y="430" width="100" height="50" as="geometry" />
        </mxCell>
        <mxCell id="UVm6rG7PrMdfkEH4zLCa-28" value="" style="endArrow=none;html=1;rounded=0;entryX=0.75;entryY=1;entryDx=0;entryDy=0;exitX=0.57;exitY=0.02;exitDx=0;exitDy=0;exitPerimeter=0;" edge="1" parent="1" source="UVm6rG7PrMdfkEH4zLCa-27" target="UVm6rG7PrMdfkEH4zLCa-17">
          <mxGeometry width="50" height="50" relative="1" as="geometry">
            <mxPoint x="190" y="430" as="sourcePoint" />
            <mxPoint x="210" y="370" as="targetPoint" />
          </mxGeometry>
        </mxCell>
      </root>
    </mxGraphModel>
  </diagram>
</mxfile>
